# Made in Blockbench 4.9.4
mtllib Flashlight.mtl

o cylinder
v 0 0.18125 0
v 0.012944173824159222 0 0.03125
v 0.012944173824159222 0.1875 0.03125
v 0.03125 0 0.012944173824159223
v 0.03125 0.1875 0.012944173824159223
v 0.03125 0 -0.01294417382415922
v 0.03125 0.1875 -0.01294417382415922
v 0.012944173824159225 0 -0.03125
v 0.012944173824159225 0.1875 -0.03125
v 0.00970813036811942 0.1875 -0.0234375
v 0.0234375 0.1875 -0.009708130368119416
v 0.0234375 0.1875 0.009708130368119417
v 0.009708130368119416 0.1875 0.0234375
v 0.00970813036811942 0.18125 -0.0234375
v 0.0234375 0.18125 -0.009708130368119416
v 0.0234375 0.18125 0.009708130368119417
v 0.009708130368119416 0.18125 0.0234375
v 0.03125 0.03749999999999998 0.012944173824159223
v 0.012944173824159222 0.03749999999999998 0.03125
v 0.03125 0.06249999999999998 0.012944173824159223
v 0.012944173824159222 0.06249999999999998 0.03125
v 0.025 0.12499999999999999 0.012944173824159223
v 0.012944173824159222 0.12499999999999999 0.025
v 0.03125 0.16875 0.016180217280199027
v 0.016180217280199027 0.16875 0.03125
v 0.012944173824159225 0.03749999999999998 -0.03125
v 0.012944173824159225 0.06249999999999998 -0.03125
v 0.012944173824159225 0.12499999999999999 -0.025
v 0.01618021728019903 0.16875 -0.03125
v 0.03125 0.03749999999999998 -0.01294417382415922
v 0.03125 0.06249999999999998 -0.01294417382415922
v 0.025 0.12499999999999999 -0.01294417382415922
v 0.03125 0.16875 -0.016180217280199024
v 0.016180217280199027 0.15 0.03125
v 0.01618021728019903 0.15 -0.03125
v 0.03125 0.15 -0.016180217280199024
v 0.03125 0.15 0.016180217280199027
v 0.00970813036811942 0 -0.0234375
v 0.0234375 0 -0.009708130368119416
v 0.009708130368119416 0 0.0234375
v 0.0234375 0 0.009708130368119417
v 0.007281097776089564 -0.00625 -0.017578125
v 0.017578125 -0.00625 -0.007281097776089562
v 0 -0.0125 0
v 0.007281097776089562 -0.00625 0.017578125
v 0.017578125 -0.00625 0.007281097776089563
v -0.012944173824159222 0 0.03125
v -0.012944173824159222 0.1875 0.03125
v -0.03125 0 0.012944173824159223
v -0.03125 0.1875 0.012944173824159223
v -0.03125 0 -0.01294417382415922
v -0.03125 0.1875 -0.01294417382415922
v -0.012944173824159225 0 -0.03125
v -0.012944173824159225 0.1875 -0.03125
v -0.00970813036811942 0.1875 -0.0234375
v -0.0234375 0.1875 -0.009708130368119416
v -0.0234375 0.1875 0.009708130368119417
v -0.009708130368119416 0.1875 0.0234375
v -0.00970813036811942 0.18125 -0.0234375
v -0.0234375 0.18125 -0.009708130368119416
v -0.0234375 0.18125 0.009708130368119417
v -0.009708130368119416 0.18125 0.0234375
v -0.03125 0.03749999999999998 0.012944173824159223
v -0.012944173824159222 0.03749999999999998 0.03125
v -0.03125 0.06249999999999998 0.012944173824159223
v -0.012944173824159222 0.06249999999999998 0.03125
v -0.025 0.12499999999999999 0.012944173824159223
v -0.012944173824159222 0.12499999999999999 0.025
v -0.03125 0.16875 0.016180217280199027
v -0.016180217280199027 0.16875 0.03125
v -0.012944173824159225 0.03749999999999998 -0.03125
v -0.012944173824159225 0.06249999999999998 -0.03125
v -0.012944173824159225 0.12499999999999999 -0.025
v -0.01618021728019903 0.16875 -0.03125
v -0.03125 0.03749999999999998 -0.01294417382415922
v -0.03125 0.06249999999999998 -0.01294417382415922
v -0.025 0.12499999999999999 -0.01294417382415922
v -0.03125 0.16875 -0.016180217280199024
v -0.016180217280199027 0.15 0.03125
v -0.01618021728019903 0.15 -0.03125
v -0.03125 0.15 -0.016180217280199024
v -0.03125 0.15 0.016180217280199027
v -0.00970813036811942 0 -0.0234375
v -0.0234375 0 -0.009708130368119416
v -0.009708130368119416 0 0.0234375
v -0.0234375 0 0.009708130368119417
v -0.007281097776089564 -0.00625 -0.017578125
v -0.017578125 -0.00625 -0.007281097776089562
v -0.007281097776089562 -0.00625 0.017578125
v -0.017578125 -0.00625 0.007281097776089563
vt 0.6638601018346114 0.7257541194684362
vt 0.6492976018346114 0.7257541194684362
vt 0.6565788518346114 0.7070978694684361
vt 0.01830625 1
vt 0.015068749999999999 0.98125
vt 0.04743125 0.98125
vt 0.044193750000000004 1
vt 0.41595625 0.375
vt 0.39654375 0.375
vt 0.40625 0.3515625
vt 0.6524562582428128 0.6875
vt 0.6668215326022404 0.6898885767369656
vt 0.6565788518346114 0.7070978694684362
vt 0.14330625 1
vt 0.14006875 0.98125
vt 0.17243125 0.98125
vt 0.16919375 1
vt 0.39654375 0.328125
vt 0.41595625 0.328125
vt 0.40625 0.3515625
vt 0.52154375 0.9921875
vt 0.54095625 0.9921875
vt 0.54419375 1
vt 0.51830625 1
vt 0.54095625 0.9453125
vt 0.52154375 0.9453125
vt 0.51830625 0.9375
vt 0.54419375 0.9375
vt 0.5 0.8125
vt 0.5625 0.8125
vt 0.5625 0.875
vt 0.5 0.875
vt 0.5 0.6875
vt 0.5625 0.6875
vt 0.5625 0.75
vt 0.5 0.75
vt 0.16919375 0.81141875
vt 0.16919375 0.8489187499999999
vt 0.14330625 0.8489187499999999
vt 0.14330625 0.81141875
vt 0.16919375 0.8489187499999999
vt 0.16919375 0.87391875
vt 0.14330625 0.87391875
vt 0.14330625 0.8489187499999999
vt 0.16919375 0.87391875
vt 0.16919375 0.93673125
vt 0.14330625 0.93673125
vt 0.14330625 0.87391875
vt 0.14006875 0.98125
vt 0.14006875 0.9625
vt 0.17243125 0.9625
vt 0.17243125 0.98125
vt 0.044193750000000004 0.81141875
vt 0.044193750000000004 0.8489187499999999
vt 0.01830625 0.8489187499999999
vt 0.01830625 0.81141875
vt 0.044193750000000004 0.8489187499999999
vt 0.044193750000000004 0.87391875
vt 0.01830625 0.87391875
vt 0.01830625 0.8489187499999999
vt 0.044193750000000004 0.87391875
vt 0.044193750000000004 0.93673125
vt 0.01830625 0.93673125
vt 0.01830625 0.87391875
vt 0.015068749999999999 0.98125
vt 0.015068749999999999 0.9625
vt 0.04743125 0.9625
vt 0.04743125 0.98125
vt 0.640270799548474 0.695473769664253
vt 0.6524562582428128 0.6875
vt 0.6565788518346114 0.7070978694684361
vt 0.1616125 0.6875
vt 0.1639 0.6686125
vt 0.1852125 0.6686125
vt 0.1875 0.6875
vt 0.41595625 0.328125
vt 0.4296875 0.34185625
vt 0.40625 0.3515625
vt 0.636894803536673 0.7181228023717183
vt 0.6329403510123558 0.7041074996107031
vt 0.6528728042022528 0.7060490390662807
vt 0.26830625 1
vt 0.26506875 0.98125
vt 0.29743125 0.98125
vt 0.29419375000000003 1
vt 0.4296875 0.34185625
vt 0.4296875 0.36126875
vt 0.40625 0.3515625
vt 0.6492976018346114 0.7257541194684362
vt 0.636894803536673 0.7181228023717183
vt 0.6528728042022528 0.7060490390662807
vt 0.25 0.6875
vt 0.2522875 0.6686125
vt 0.2736 0.6686125
vt 0.2758875 0.6875
vt 0.4296875 0.36126875
vt 0.41595625 0.375
vt 0.40625 0.3515625
vt 0.54095625 0.9921875
vt 0.5546875 0.97845625
vt 0.5625 0.98169375
vt 0.54419375 1
vt 0.5546875 0.97845625
vt 0.5546875 0.95904375
vt 0.5625 0.95580625
vt 0.5625 0.98169375
vt 0.5546875 0.95904375
vt 0.54095625 0.9453125
vt 0.54419375 0.9375
vt 0.5625 0.95580625
vt 0.625 0.8125
vt 0.6875 0.8125
vt 0.6875 0.875
vt 0.625 0.875
vt 0.5 0.5625
vt 0.5625 0.5625
vt 0.5625 0.625
vt 0.5 0.625
vt 0.625 0.9375
vt 0.6875 0.9375
vt 0.6875 1
vt 0.625 1
vt 0.1875 0.49881875
vt 0.1875 0.53631875
vt 0.1616125 0.53631875
vt 0.1616125 0.49881875
vt 0.1875 0.53631875
vt 0.1875 0.56131875
vt 0.1616125 0.56131875
vt 0.1616125 0.53631875
vt 0.1875 0.56131875
vt 0.18308125 0.623975
vt 0.16603125 0.623975
vt 0.1616125 0.56131875
vt 0.1639 0.6686125
vt 0.1639 0.6498625
vt 0.1852125 0.6498625
vt 0.1852125 0.6686125
vt 0.2758875 0.49881875
vt 0.2758875 0.53631875
vt 0.25 0.53631875
vt 0.25 0.49881875
vt 0.2758875 0.53631875
vt 0.2758875 0.56131875
vt 0.25 0.56131875
vt 0.25 0.53631875
vt 0.2758875 0.56131875
vt 0.27146875 0.623975
vt 0.25441875 0.623975
vt 0.25 0.56131875
vt 0.2522875 0.6686125
vt 0.2522875 0.6498625
vt 0.2736 0.6498625
vt 0.2736 0.6686125
vt 0.29419375000000003 0.81141875
vt 0.29419375000000003 0.8489187499999999
vt 0.26830625 0.8489187499999999
vt 0.26830625 0.81141875
vt 0.29419375000000003 0.8489187499999999
vt 0.29419375000000003 0.87391875
vt 0.26830625 0.87391875
vt 0.26830625 0.8489187499999999
vt 0.29419375000000003 0.87391875
vt 0.29419375000000003 0.93673125
vt 0.26830625 0.93673125
vt 0.26830625 0.87391875
vt 0.26506875 0.98125
vt 0.26506875 0.9625
vt 0.29743125 0.9625
vt 0.29743125 0.98125
vt 0.16919375 0.93673125
vt 0.17243125 0.9625
vt 0.14006875 0.9625
vt 0.14330625 0.93673125
vt 0.044193750000000004 0.93673125
vt 0.04743125 0.9625
vt 0.015068749999999999 0.9625
vt 0.01830625 0.93673125
vt 0.27146875 0.623975
vt 0.2736 0.6498625
vt 0.2522875 0.6498625
vt 0.25441875 0.623975
vt 0.29419375000000003 0.93673125
vt 0.29743125 0.9625
vt 0.26506875 0.9625
vt 0.26830625 0.93673125
vt 0.18308125 0.623975
vt 0.1852125 0.6498625
vt 0.1639 0.6498625
vt 0.16603125 0.623975
vt 0.5546875 0.45904375
vt 0.54095625 0.4453125
vt 0.54419375 0.4375
vt 0.5625 0.45580624999999997
vt 0.54095625 0.4453125
vt 0.52154375 0.4453125
vt 0.51830625 0.4375
vt 0.54419375 0.4375
vt 0.52154375 0.4921875
vt 0.54095625 0.4921875
vt 0.54419375 0.5
vt 0.51830625 0.5
vt 0.54095625 0.4921875
vt 0.5546875 0.47845625
vt 0.5625 0.48169375000000003
vt 0.54419375 0.5
vt 0.5546875 0.47845625
vt 0.5546875 0.45904375
vt 0.5625 0.45580624999999997
vt 0.5625 0.48169375000000003
vt 0.636894803536673 0.7181228023717183
vt 0.6492976018346114 0.7257541194684362
vt 0.6468726018346114 0.7343228694684362
vt 0.6303390861636258 0.7241499635017385
vt 0.6492976018346114 0.7257541194684362
vt 0.6638601018346114 0.7257541194684362
vt 0.6662851018346114 0.7343228694684362
vt 0.6468726018346114 0.7343228694684362
vt 0.64896875 0.4451313170967178
vt 0.66353125 0.4451313170967178
vt 0.66595625 0.45370006709671773
vt 0.64654375 0.45370006709671773
vt 0.66353125 0.4451313170967178
vt 0.6759340482979384 0.4375
vt 0.6824897656709856 0.4435271611300202
vt 0.66595625 0.45370006709671773
vt 0.52396875 0.3125
vt 0.53853125 0.3125
vt 0.54095625 0.375
vt 0.52154375 0.375
vt 0.6524562582428128 0.6875
vt 0.640270799548474 0.695473769664253
vt 0.6565788518346114 0.7070978694684361
vt 0.1852125 0.6686125
vt 0.1639 0.6686125
vt 0.1616125 0.6875
vt 0.1875 0.6875
vt 0.4296875 0.34185625
vt 0.41595625 0.328125
vt 0.40625 0.3515625
vt 0.6329403510123558 0.7041074996107031
vt 0.636894803536673 0.7181228023717183
vt 0.6528728042022528 0.7060490390662807
vt 0.29743125 0.98125
vt 0.26506875 0.98125
vt 0.26830625 1
vt 0.29419375000000003 1
vt 0.4296875 0.36126875
vt 0.4296875 0.34185625
vt 0.40625 0.3515625
vt 0.636894803536673 0.7181228023717183
vt 0.6492976018346114 0.7257541194684362
vt 0.6528728042022528 0.7060490390662807
vt 0.2736 0.6686125
vt 0.2522875 0.6686125
vt 0.25 0.6875
vt 0.2758875 0.6875
vt 0.41595625 0.375
vt 0.4296875 0.36126875
vt 0.40625 0.3515625
vt 0.5625 0.98169375
vt 0.5546875 0.97845625
vt 0.54095625 0.9921875
vt 0.54419375 1
vt 0.5625 0.95580625
vt 0.5546875 0.95904375
vt 0.5546875 0.97845625
vt 0.5625 0.98169375
vt 0.54419375 0.9375
vt 0.54095625 0.9453125
vt 0.5546875 0.95904375
vt 0.5625 0.95580625
vt 0.6875 0.875
vt 0.6875 0.8125
vt 0.625 0.8125
vt 0.625 0.875
vt 0.5625 0.625
vt 0.5625 0.5625
vt 0.5 0.5625
vt 0.5 0.625
vt 0.6875 1
vt 0.6875 0.9375
vt 0.625 0.9375
vt 0.625 1
vt 0.1616125 0.53631875
vt 0.1875 0.53631875
vt 0.1875 0.49881875
vt 0.1616125 0.49881875
vt 0.1616125 0.56131875
vt 0.1875 0.56131875
vt 0.1875 0.53631875
vt 0.1616125 0.53631875
vt 0.16603125 0.623975
vt 0.18308125 0.623975
vt 0.1875 0.56131875
vt 0.1616125 0.56131875
vt 0.1852125 0.6498625
vt 0.1639 0.6498625
vt 0.1639 0.6686125
vt 0.1852125 0.6686125
vt 0.25 0.53631875
vt 0.2758875 0.53631875
vt 0.2758875 0.49881875
vt 0.25 0.49881875
vt 0.25 0.56131875
vt 0.2758875 0.56131875
vt 0.2758875 0.53631875
vt 0.25 0.53631875
vt 0.25441875 0.623975
vt 0.27146875 0.623975
vt 0.2758875 0.56131875
vt 0.25 0.56131875
vt 0.2736 0.6498625
vt 0.2522875 0.6498625
vt 0.2522875 0.6686125
vt 0.2736 0.6686125
vt 0.26830625 0.8489187499999999
vt 0.29419375000000003 0.8489187499999999
vt 0.29419375000000003 0.81141875
vt 0.26830625 0.81141875
vt 0.26830625 0.87391875
vt 0.29419375000000003 0.87391875
vt 0.29419375000000003 0.8489187499999999
vt 0.26830625 0.8489187499999999
vt 0.26830625 0.93673125
vt 0.29419375000000003 0.93673125
vt 0.29419375000000003 0.87391875
vt 0.26830625 0.87391875
vt 0.29743125 0.9625
vt 0.26506875 0.9625
vt 0.26506875 0.98125
vt 0.29743125 0.98125
vt 0.2522875 0.6498625
vt 0.2736 0.6498625
vt 0.27146875 0.623975
vt 0.25441875 0.623975
vt 0.26506875 0.9625
vt 0.29743125 0.9625
vt 0.29419375000000003 0.93673125
vt 0.26830625 0.93673125
vt 0.1639 0.6498625
vt 0.1852125 0.6498625
vt 0.18308125 0.623975
vt 0.16603125 0.623975
vt 0.54419375 0.4375
vt 0.54095625 0.4453125
vt 0.5546875 0.45904375
vt 0.5625 0.45580624999999997
vt 0.5625 0.48169375000000003
vt 0.5546875 0.47845625
vt 0.54095625 0.4921875
vt 0.54419375 0.5
vt 0.5625 0.45580624999999997
vt 0.5546875 0.45904375
vt 0.5546875 0.47845625
vt 0.5625 0.48169375000000003
vt 0.6468726018346114 0.7343228694684362
vt 0.6492976018346114 0.7257541194684362
vt 0.636894803536673 0.7181228023717183
vt 0.6303390861636258 0.7241499635017385
vt 0.6824897656709856 0.4435271611300202
vt 0.6759340482979384 0.4375
vt 0.66353125 0.4451313170967178
vt 0.66595625 0.45370006709671773
vt 0.54095625 0.375
vt 0.53853125 0.3125
vt 0.52396875 0.3125
vt 0.52154375 0.375
vn 0 -0.9422146902791406 -0.33500966765480555
vn 0 0 -1
vn 0 1 0
vn 0 -0.9422146902791406 0.33500966765480555
vn 0 0 1
vn 0 1 0
vn 0 1 0
vn 0 1 0
vn 0 0 1
vn 0 0 -1
vn 0 0 1
vn 0 0 1
vn 0 0.0995037190209989 0.9950371902099893
vn 0 0 1
vn 0 0 -1
vn 0 0 -1
vn 0 0.09950371902099889 -0.9950371902099892
vn 0 0 -1
vn 0.2368876077617646 -0.9422146902791406 0.2368876077617646
vn 0.7018992384336088 0.12114007665772825 0.7018992384336087
vn 0 1 0
vn 0.3350096676548055 -0.9422146902791406 0
vn 1 0 0
vn 0 1 0
vn 0.23688760776176462 -0.9422146902791406 -0.2368876077617646
vn 0.7018992384336089 0.12114007665772814 -0.7018992384336087
vn 0 1 0
vn 0 1 0
vn 0 1 0
vn 0 1 0
vn -0.7071067811865477 0 0.7071067811865475
vn -1 0 0
vn -0.7071067811865475 0 -0.7071067811865476
vn 0.7071067811865476 0 0.7071067811865476
vn 0.7071067811865476 0 0.7071067811865476
vn 0.7053456158585983 0.07053456158585983 0.7053456158585983
vn 0.7071067811865476 0 0.7071067811865476
vn 0.7071067811865476 0 -0.7071067811865475
vn 0.7071067811865476 0 -0.7071067811865475
vn 0.7053456158585985 0.0705345615858598 -0.7053456158585981
vn 0.7071067811865478 0 -0.7071067811865474
vn 1 0 0
vn 1 0 0
vn 0.9950371902099893 0.0995037190209989 0
vn 1 0 0
vn 0 -0.24253562503633286 0.970142500145332
vn 0 -0.24253562503633289 -0.9701425001453321
vn 0.6829517731758293 -0.2591404079490141 -0.6829517731758292
vn 0.9701425001453321 -0.24253562503633289 0
vn 0.6829517731758293 -0.25914040794901405 0.6829517731758292
vn 0 -1 0
vn 0 -1 0
vn 0 -1 0
vn 0 -1 0
vn 0 -1 0
vn 0.5158607041753288 -0.6839411288813299 -0.5158607041753287
vn 0 -0.6839411288813297 -0.7295372041400852
vn 0 -0.6839411288813299 0.7295372041400852
vn 0.5158607041753288 -0.6839411288813299 0.5158607041753288
vn 0.7295372041400852 -0.6839411288813299 0
vn -0.2368876077617646 -0.9422146902791406 0.2368876077617646
vn -0.7018992384336087 0.1211400766577282 0.7018992384336087
vn 0 1 0
vn -0.3350096676548055 -0.9422146902791406 0
vn -1 0 0
vn 0 1 0
vn -0.2368876077617646 -0.9422146902791406 -0.23688760776176454
vn -0.7018992384336089 0.12114007665772822 -0.7018992384336087
vn 0 1 0
vn 0 1 0
vn 0 1 0
vn 0 1 0
vn 0.7071067811865477 0 0.7071067811865475
vn 1 0 0
vn 0.7071067811865475 0 -0.7071067811865476
vn -0.7071067811865476 0 0.7071067811865476
vn -0.7071067811865476 0 0.7071067811865476
vn -0.7053456158585982 0.07053456158585977 0.7053456158585983
vn -0.7071067811865476 0 0.7071067811865476
vn -0.7071067811865476 0 -0.7071067811865475
vn -0.7071067811865476 0 -0.7071067811865475
vn -0.7053456158585985 0.0705345615858598 -0.7053456158585981
vn -0.7071067811865478 0 -0.7071067811865474
vn -1 0 0
vn -1 0 0
vn -0.9950371902099893 0.0995037190209989 0
vn -1 0 0
vn -0.6829517731758293 -0.25914040794901416 -0.6829517731758291
vn -0.970142500145332 -0.24253562503633286 0
vn -0.6829517731758292 -0.2591404079490141 0.6829517731758292
vn 0 -1 0
vn 0 -1 0
vn 0 -1 0
vn -0.5158607041753289 -0.6839411288813299 -0.5158607041753288
vn -0.5158607041753287 -0.6839411288813299 0.5158607041753288
vn -0.7295372041400852 -0.6839411288813297 0
usemtl m_c2b6c990-4aa5-44c4-9b76-de020420f166
f 87/1/1 42/2/1 44/3/1
f 9/4/2 29/5/2 74/6/2 54/7/2
f 14/8/3 59/9/3 1/10/3
f 45/11/4 89/12/4 44/13/4
f 48/14/5 70/15/5 25/16/5 3/17/5
f 62/18/6 17/19/6 1/20/6
f 55/21/7 10/22/7 9/23/7 54/24/7
f 13/25/8 58/26/8 48/27/8 3/28/8
f 59/29/9 14/30/9 10/31/9 55/32/9
f 17/33/10 62/34/10 58/35/10 13/36/10
f 2/37/11 19/38/11 64/39/11 47/40/11
f 19/41/12 21/42/12 66/43/12 64/44/12
f 21/45/13 23/46/13 68/47/13 66/48/13
f 70/49/14 79/50/14 34/51/14 25/52/14
f 53/53/15 71/54/15 26/55/15 8/56/15
f 71/57/16 72/58/16 27/59/16 26/60/16
f 72/61/17 73/62/17 28/63/17 27/64/17
f 29/65/18 35/66/18 80/67/18 74/68/18
f 46/69/19 45/70/19 44/71/19
f 3/72/20 25/73/20 24/74/20 5/75/20
f 17/76/21 16/77/21 1/78/21
f 43/79/22 46/80/22 44/81/22
f 5/82/23 24/83/23 33/84/23 7/85/23
f 16/86/24 15/87/24 1/88/24
f 42/89/25 43/90/25 44/91/25
f 7/92/26 33/93/26 29/94/26 9/95/26
f 15/96/27 14/97/27 1/98/27
f 10/99/28 11/100/28 7/101/28 9/102/28
f 11/103/29 12/104/29 5/105/29 7/106/29
f 12/107/30 13/108/30 3/109/30 5/110/30
f 14/111/31 15/112/31 11/113/31 10/114/31
f 15/115/32 16/116/32 12/117/32 11/118/32
f 16/119/33 17/120/33 13/121/33 12/122/33
f 4/123/34 18/124/34 19/125/34 2/126/34
f 18/127/35 20/128/35 21/129/35 19/130/35
f 20/131/36 22/132/36 23/133/36 21/134/36
f 25/135/37 34/136/37 37/137/37 24/138/37
f 8/139/38 26/140/38 30/141/38 6/142/38
f 26/143/39 27/144/39 31/145/39 30/146/39
f 27/147/40 28/148/40 32/149/40 31/150/40
f 33/151/41 36/152/41 35/153/41 29/154/41
f 6/155/42 30/156/42 18/157/42 4/158/42
f 30/159/43 31/160/43 20/161/43 18/162/43
f 31/163/44 32/164/44 22/165/44 20/166/44
f 24/167/45 37/168/45 36/169/45 33/170/45
f 23/171/46 34/172/46 79/173/46 68/174/46
f 73/175/47 80/176/47 35/177/47 28/178/47
f 28/179/48 35/180/48 36/181/48 32/182/48
f 32/183/49 36/184/49 37/185/49 22/186/49
f 22/187/50 37/188/50 34/189/50 23/190/50
f 39/191/51 38/192/51 8/193/51 6/194/51
f 38/195/52 83/196/52 53/197/52 8/198/52
f 85/199/53 40/200/53 2/201/53 47/202/53
f 40/203/54 41/204/54 4/205/54 2/206/54
f 41/207/55 39/208/55 6/209/55 4/210/55
f 43/211/56 42/212/56 38/213/56 39/214/56
f 42/215/57 87/216/57 83/217/57 38/218/57
f 89/219/58 45/220/58 40/221/58 85/222/58
f 45/223/59 46/224/59 41/225/59 40/226/59
f 46/227/60 43/228/60 39/229/60 41/230/60
f 89/231/61 90/232/61 44/233/61
f 69/234/62 70/235/62 48/236/62 50/237/62
f 61/238/63 62/239/63 1/240/63
f 90/241/64 88/242/64 44/243/64
f 78/244/65 69/245/65 50/246/65 52/247/65
f 60/248/66 61/249/66 1/250/66
f 88/251/67 87/252/67 44/253/67
f 74/254/68 78/255/68 52/256/68 54/257/68
f 59/258/69 60/259/69 1/260/69
f 52/261/70 56/262/70 55/263/70 54/264/70
f 50/265/71 57/266/71 56/267/71 52/268/71
f 48/269/72 58/270/72 57/271/72 50/272/72
f 56/273/73 60/274/73 59/275/73 55/276/73
f 57/277/74 61/278/74 60/279/74 56/280/74
f 58/281/75 62/282/75 61/283/75 57/284/75
f 64/285/76 63/286/76 49/287/76 47/288/76
f 66/289/77 65/290/77 63/291/77 64/292/77
f 68/293/78 67/294/78 65/295/78 66/296/78
f 82/297/79 79/298/79 70/299/79 69/300/79
f 75/301/80 71/302/80 53/303/80 51/304/80
f 76/305/81 72/306/81 71/307/81 75/308/81
f 77/309/82 73/310/82 72/311/82 76/312/82
f 80/313/83 81/314/83 78/315/83 74/316/83
f 63/317/84 75/318/84 51/319/84 49/320/84
f 65/321/85 76/322/85 75/323/85 63/324/85
f 67/325/86 77/326/86 76/327/86 65/328/86
f 81/329/87 82/330/87 69/331/87 78/332/87
f 81/333/88 80/334/88 73/335/88 77/336/88
f 82/337/89 81/338/89 77/339/89 67/340/89
f 79/341/90 82/342/90 67/343/90 68/344/90
f 53/345/91 83/346/91 84/347/91 51/348/91
f 49/349/92 86/350/92 85/351/92 47/352/92
f 51/353/93 84/354/93 86/355/93 49/356/93
f 83/357/94 87/358/94 88/359/94 84/360/94
f 86/361/95 90/362/95 89/363/95 85/364/95
f 84/365/96 88/366/96 90/367/96 86/368/96