# Made in Blockbench 4.9.4
mtllib Keyhole.mtl

o cuboid
v -0.031249999999999944 0.5375 0.1875
v -0.031249999999999944 0.5375 -0.1875
v -0.1875 0 0.1875
v -0.1875 0 -0.1875
v -0.1875 0.375 0.1875
v -0.1875 0.375 -0.1875
v -0.09999999999999994 0.25 0.1875
v -0.09999999999999994 0.25 -0.1875
v -0.14375000000000002 0.125 0.1875
v -0.14375000000000002 0.125 -0.1875
v -0.12812499999999996 0.4937499999999999 0.1875
v -0.12812499999999996 0.4937499999999999 -0.1875
v 0.031249999999999944 0.5375 0.1875
v 0.031249999999999944 0.5375 -0.1875
v 0.1875 0 0.1875
v 0.1875 0 -0.1875
v 0.1875 0.375 0.1875
v 0.1875 0.375 -0.1875
v 0.09999999999999994 0.25 0.1875
v 0.09999999999999994 0.25 -0.1875
v 0.14375000000000002 0.125 0.1875
v 0.14375000000000002 0.125 -0.1875
v 0.12812499999999996 0.4937499999999999 0.1875
v 0.12812499999999996 0.4937499999999999 -0.1875
vt 0 0.625
vt 0.375 0.625
vt 0.375 1
vt 0 1
vt 0.375 0.625
vt 0.375 1
vt 0 1
vt 0 0.625
vt 0.375 0.5
vt 0.375 0.625
vt 0 0.625
vt 0 0.5
vt 0.375 0.5
vt 0.375 0.625
vt 0 0.625
vt 0 0.5
vt 0.375 0.875
vt 0.375 0.9375
vt 0 0.9375
vt 0 0.875
vt 0 0.875
vt 0 0.75
vt 0.375 0.75
vt 0.375 0.875
vt 0 0.75
vt 0 0.625
vt 0.375 0.625
vt 0.375 0.75
vt 0.375 0.875
vt 0.375 0.9375
vt 0 0.9375
vt 0 0.875
vt 0 0.875
vt 0 0.75
vt 0.375 0.75
vt 0.375 0.875
vt 0 0.75
vt 0 0.625
vt 0.375 0.625
vt 0.375 0.75
vt 0 1
vt 0 0.9375
vt 0.375 0.9375
vt 0.375 1
vt 0 1
vt 0 0.9375
vt 0.375 0.9375
vt 0.375 1
vt 0 0.625
vt 0.375 0.625
vt 0.375 0.5
vt 0 0.5
vt 0 0.9375
vt 0.375 0.9375
vt 0.375 0.875
vt 0 0.875
vt 0.375 0.75
vt 0 0.75
vt 0 0.875
vt 0.375 0.875
vt 0.375 0.625
vt 0 0.625
vt 0 0.75
vt 0.375 0.75
vt 0.375 0.9375
vt 0 0.9375
vt 0 1
vt 0.375 1
vt 0.375 0.5
vt 0.375 0.625
vt 0 0.625
vt 0 0.5
vt 0.375 0.875
vt 0.375 0.9375
vt 0 0.9375
vt 0 0.875
vt 0 0.875
vt 0 0.75
vt 0.375 0.75
vt 0.375 0.875
vt 0 0.75
vt 0 0.625
vt 0.375 0.625
vt 0.375 0.75
vt 0 1
vt 0 0.9375
vt 0.375 0.9375
vt 0.375 1
vn 0 1 0
vn 0 -1 0
vn 0 0 1
vn 0 0 -1
vn 0 0 -1
vn 0 0 -1
vn 0 0 -1
vn 0 0 1
vn 0 0 1
vn 0 0 1
vn 0 0 -1
vn 0 0 1
vn -0.9438583563660174 0.330350424728106 0
vn -0.8944271909999156 0.4472135954999584 0
vn -0.8192319205190403 -0.5734623443633285 0
vn -0.9438583563660172 0.33035042472810666 0
vn -0.41158672242649885 0.9113705996586747 0
vn 0.9438583563660174 0.330350424728106 0
vn 0.8944271909999156 0.4472135954999584 0
vn 0.8192319205190403 -0.5734623443633285 0
vn 0.9438583563660172 0.33035042472810666 0
vn 0.41158672242649885 0.9113705996586747 0
usemtl none
f 1/1/1 13/2/1 14/3/1 2/4/1
f 16/5/2 15/6/2 3/7/2 4/8/2
f 15/9/3 21/10/3 9/11/3 3/12/3
f 4/13/4 10/14/4 22/15/4 16/16/4
f 6/17/5 12/18/5 24/19/5 18/20/5
f 18/21/6 20/22/6 8/23/6 6/24/6
f 20/25/7 22/26/7 10/27/7 8/28/7
f 17/29/8 23/30/8 11/31/8 5/32/8
f 5/33/9 7/34/9 19/35/9 17/36/9
f 7/37/10 9/38/10 21/39/10 19/40/10
f 14/41/11 24/42/11 12/43/11 2/44/11
f 1/45/12 11/46/12 23/47/12 13/48/12
f 9/49/13 10/50/13 4/51/13 3/52/13
f 11/53/14 12/54/14 6/55/14 5/56/14
f 8/57/15 7/58/15 5/59/15 6/60/15
f 10/61/16 9/62/16 7/63/16 8/64/16
f 12/65/17 11/66/17 1/67/17 2/68/17
f 16/69/18 22/70/18 21/71/18 15/72/18
f 18/73/19 24/74/19 23/75/19 17/76/19
f 17/77/20 19/78/20 20/79/20 18/80/20
f 19/81/21 21/82/21 22/83/21 20/84/21
f 13/85/22 23/86/22 24/87/22 14/88/22